<?xml version="1.0" encoding="UTF-8" standalone="no"?>
<svg
   xmlns:dc="http://purl.org/dc/elements/1.1/"
   xmlns:cc="http://creativecommons.org/ns#"
   xmlns:rdf="http://www.w3.org/1999/02/22-rdf-syntax-ns#"
   xmlns:svg="http://www.w3.org/2000/svg"
   xmlns="http://www.w3.org/2000/svg"
   xmlns:sodipodi="http://sodipodi.sourceforge.net/DTD/sodipodi-0.dtd"
   xmlns:inkscape="http://www.inkscape.org/namespaces/inkscape"
   width="744.09448819"
   height="1052.3622047"
   id="svg2"
   version="1.1"
   inkscape:version="0.48.4 r9939"
   sodipodi:docname="camera-icon.svg">
  <defs
     id="defs20" />
  <sodipodi:namedview
     pagecolor="#ffffff"
     bordercolor="#666666"
     borderopacity="1"
     objecttolerance="10"
     gridtolerance="10"
     guidetolerance="10"
     inkscape:pageopacity="0"
     inkscape:pageshadow="2"
     inkscape:window-width="1920"
     inkscape:window-height="1035"
     id="namedview18"
     showgrid="true"
     inkscape:zoom="1.7940591"
     inkscape:cx="272.76895"
     inkscape:cy="781.96445"
     inkscape:window-x="0"
     inkscape:window-y="0"
     inkscape:window-maximized="1"
     inkscape:current-layer="svg2">
    <inkscape:grid
       type="xygrid"
       id="grid2997"
       empspacing="5"
       visible="true"
       enabled="true"
       snapvisiblegridlinesonly="true" />
  </sodipodi:namedview>
  <title
     id="title4">Camera icon</title>
  <metadata
     id="metadata12390">image/svg+xmlOther map symbolsMohamed IbrahimPublic Domainclker.comother map symbols<rdf:RDF>
  <cc:Work
     rdf:about="">
    <dc:format>image/svg+xml</dc:format>
    <dc:type
       rdf:resource="http://purl.org/dc/dcmitype/StillImage" />
    <dc:title>Camera icon</dc:title>
  </cc:Work>
</rdf:RDF>
</metadata>
  <path
     style="fill:#ff007f;fill-rule:nonzero"
     inkscape:connector-curvature="0"
     id="path2780"
     d="m 235.47099,208.80299 c 21.64702,0 40.43202,11.78801 50.808,29.16102 l 61.14801,0.069 0,-32.781 c 0,-12.202 -9.927,-22.094 -22.095,-22.094 l -227.875998,0 c -12.202103,0 -22.025803,9.892 -22.025803,22.094 l 0.069,32.505 109.129801,0.069 c 10.444,-17.304 29.16099,-29.02301 50.84199,-29.02301"
     inkscape:export-filename="/home/alex/workspace/soundcam/path2790.png"
     inkscape:export-xdpi="21.25037"
     inkscape:export-ydpi="21.25037" />
  <path
     style="fill:#231f20;fill-rule:nonzero"
     inkscape:connector-curvature="0"
     id="path2782"
     d="m 132.5802,172.74788 -20.26791,0 -2.3439,7.30748 24.3008,0 -1.68899,-7.30748 z"
     inkscape:export-filename="/home/alex/workspace/soundcam/path2790.png"
     inkscape:export-xdpi="21.25037"
     inkscape:export-ydpi="21.25037" />
  <path
     style="fill:#231f20;fill-rule:nonzero"
     inkscape:connector-curvature="0"
     id="path2784"
     d="m 315.37054,168.85286 -26.98941,0 -4.79123,11.27144 36.15824,0 -4.3776,-11.27144 z"
     inkscape:export-filename="/home/alex/workspace/soundcam/path2790.png"
     inkscape:export-xdpi="21.25037"
     inkscape:export-ydpi="21.25037" />
  <path
     style="fill:#231f20;fill-rule:nonzero"
     inkscape:connector-curvature="0"
     id="path2786"
     d="m 222.71724,176.22928 -23.23226,0 0,-11.23697 23.23226,0 0,11.23697 z m 21.30199,-15.75244 -65.59494,0 -13.51195,19.78534 91.48134,0 -12.37445,-19.78534 z"
     inkscape:export-filename="/home/alex/workspace/soundcam/path2790.png"
     inkscape:export-xdpi="21.25037"
     inkscape:export-ydpi="21.25037" />
  <path
     style="fill:#ff007f;fill-rule:nonzero"
     inkscape:connector-curvature="0"
     id="path2788"
     d="m 289.45001,243.823 c 3.37799,7.446 5.37699,15.64899 5.37699,24.36999 0,32.78 -26.57599,59.39103 -59.35601,59.39103 -32.81498,0 -59.39099,-26.61103 -59.39099,-59.39103 0,-8.721 1.965,-16.92399 5.37799,-24.40399 l -106.027791,0 0,89.482 c 0,12.13299 9.8237,22.026 22.025803,22.026 l 227.875998,0 c 12.168,0 22.095,-9.89301 22.095,-22.026 l 0.069,-89.448 -58.04599,0 z"
     inkscape:export-filename="/home/alex/workspace/soundcam/path2790.png"
     inkscape:export-xdpi="21.25037"
     inkscape:export-ydpi="21.25037" />
  <path
     style="fill:#000000;fill-rule:nonzero"
     inkscape:connector-curvature="0"
     id="path2790"
     d="m 267.83701,248.68401 c -0.93,-1.655 -2.10202,-3.20601 -3.37702,-4.68801 -6.92898,-8.34199 -17.30398,-13.822 -28.989,-13.822 -11.71998,0 -22.09498,5.446 -29.02299,13.753 -1.276,1.51599 -2.448,3.068 -3.44699,4.75701 -3.48201,5.722 -5.584,12.33998 -5.584,19.50898 0,20.957 17.028,37.98502 38.05398,37.98502 20.92302,0 37.95,-17.02802 37.95,-37.98502 0,-7.169 -2.06799,-13.78698 -5.58398,-19.50898"
     inkscape:export-xdpi="21.25037"
     inkscape:export-ydpi="21.25037" />
</svg>
